<?xml version="1.0" encoding="utf-8"?>
<svg viewBox="0 0 64 64" xmlns="http://www.w3.org/2000/svg" xmlns:bx="https://boxy-svg.com">
  <defs>
    <style>.cls-1{fill:url(#linear-gradient);}.cls-2{fill:#ff0117;}.cls-3{fill:#fff;}.cls-4{fill:#ffa82d;}</style>
    <bx:guide x="4.505" y="12.293" angle="90"/>
    <bx:guide x="23.492" y="50.056" angle="90"/>
    <bx:guide x="9.625" y="-10.531" angle="0"/>
    <bx:guide x="54.854" y="-2.424" angle="0"/>
  </defs>
  <title/>
  <g data-name="16-weibo" id="_16-weibo">
    <rect class="cls-1" height="64" rx="11.2" ry="11.2" width="64" style="fill: rgb(255, 163, 30);"/>
  </g>
  <path d="M 41.75 36.311 L 38.373 36.311 L 38.373 46.932 C 38.373 48.1 37.417 49.056 36.248 49.056 L 27.752 49.056 C 26.583 49.056 25.627 48.1 25.627 46.932 L 25.627 36.311 L 22.25 36.311 C 20.359 36.311 19.403 34.016 20.742 32.678 L 30.492 22.928 C 31.32 22.099 32.659 22.099 33.487 22.928 L 43.237 32.678 C 44.575 34.016 43.641 36.311 41.75 36.311 Z M 17.13 15.068 C 17.13 13.9 18.086 12.944 19.255 12.944 L 44.745 12.944 C 45.914 12.944 46.87 13.9 46.87 15.068 C 46.87 16.237 45.914 17.192 44.745 17.192 L 19.255 17.192 C 18.086 17.192 17.13 16.237 17.13 15.068 Z" style="fill: rgb(255, 255, 255);"/>
</svg>