<?xml version="1.0" encoding="utf-8"?>
<svg viewBox="0 0 64 64" xmlns="http://www.w3.org/2000/svg" xmlns:bx="https://boxy-svg.com">
  <defs>
    <style>.cls-1{fill:url(#linear-gradient);}.cls-2{fill:#ff0117;}.cls-3{fill:#fff;}.cls-4{fill:#ffa82d;}</style>
    <bx:guide x="4.505" y="12.293" angle="90"/>
    <bx:guide x="23.492" y="50.056" angle="90"/>
    <bx:guide x="9.625" y="-10.531" angle="0"/>
    <bx:guide x="54.854" y="-2.424" angle="0"/>
  </defs>
  <title/>
  <g data-name="16-weibo" id="_16-weibo">
    <rect class="cls-1" height="64" rx="11.2" ry="11.2" width="64" style="fill: rgb(242, 37, 38);"/>
  </g>
  <path d="M 37.417 45.445 C 38.807 45.445 39.676 46.949 38.98 48.153 C 38.659 48.711 38.061 49.056 37.417 49.056 L 26.583 49.056 C 25.193 49.056 24.324 47.552 25.02 46.348 C 25.343 45.79 25.939 45.445 26.583 45.445 L 37.417 45.445 Z M 37.417 12.944 C 38.332 12.944 39.103 13.63 39.21 14.539 L 39.222 14.75 L 39.222 20.167 L 42.834 20.167 C 44.724 20.167 46.295 21.622 46.436 23.507 L 46.445 23.778 L 46.445 32.806 C 46.445 38.631 41.839 43.414 36.017 43.632 L 35.611 43.639 L 28.389 43.639 C 22.564 43.639 17.781 39.033 17.563 33.212 L 17.555 32.806 L 17.555 23.778 C 17.555 21.887 19.012 20.316 20.896 20.176 L 21.166 20.167 L 24.778 20.167 L 24.778 14.75 C 24.779 13.359 26.285 12.493 27.488 13.19 C 27.981 13.473 28.309 13.973 28.376 14.539 L 28.389 14.75 L 28.389 20.167 L 35.611 20.167 L 35.611 14.75 C 35.611 13.753 36.42 12.944 37.417 12.944 Z" style="fill: rgb(255, 255, 255);"/>
</svg>