<?xml version="1.0" encoding="utf-8"?>
<svg viewBox="0 0 64 64" xmlns="http://www.w3.org/2000/svg" xmlns:bx="https://boxy-svg.com">
  <defs>
    <style>.cls-1{fill:url(#linear-gradient);}.cls-2{fill:#ff0117;}.cls-3{fill:#fff;}.cls-4{fill:#ffa82d;}</style>
    <bx:guide x="4.505" y="12.293" angle="90"/>
    <bx:guide x="23.492" y="50.056" angle="90"/>
    <bx:guide x="9.625" y="-10.531" angle="0"/>
    <bx:guide x="54.854" y="-2.424" angle="0"/>
  </defs>
  <title/>
  <g data-name="16-weibo" id="_16-weibo">
    <rect class="cls-1" height="64" rx="11.2" ry="11.2" width="64" style="fill: rgb(255, 163, 30);"/>
  </g>
  <path d="M 41.75 25.689 L 38.373 25.689 L 38.373 15.068 C 38.373 13.9 37.417 12.944 36.248 12.944 L 27.752 12.944 C 26.583 12.944 25.627 13.9 25.627 15.068 L 25.627 25.689 L 22.25 25.689 C 20.359 25.689 19.403 27.984 20.742 29.322 L 30.492 39.072 C 31.32 39.901 32.659 39.901 33.487 39.072 L 43.237 29.322 C 44.575 27.984 43.641 25.689 41.75 25.689 Z M 17.13 46.932 C 17.13 48.1 18.086 49.056 19.255 49.056 L 44.745 49.056 C 45.914 49.056 46.87 48.1 46.87 46.932 C 46.87 45.763 45.914 44.808 44.745 44.808 L 19.255 44.808 C 18.086 44.808 17.13 45.763 17.13 46.932 Z" style="fill: rgb(255, 255, 255);"/>
</svg>