<?xml version="1.0" encoding="utf-8"?>
<svg viewBox="0 0 64 64" xmlns="http://www.w3.org/2000/svg" xmlns:bx="https://boxy-svg.com">
  <defs>
    <style>.cls-1{fill:url(#linear-gradient);}.cls-2{fill:#ff0117;}.cls-3{fill:#fff;}.cls-4{fill:#ffa82d;}</style>
    <bx:guide x="4.505" y="12.293" angle="90"/>
    <bx:guide x="23.492" y="50.056" angle="90"/>
    <bx:guide x="9.625" y="-10.531" angle="0"/>
    <bx:guide x="54.854" y="-2.424" angle="0"/>
  </defs>
  <title/>
  <g data-name="16-weibo" id="_16-weibo">
    <rect class="cls-1" height="64" rx="11.2" ry="11.2" width="64" style="fill: rgb(42, 217, 162);"/>
  </g>
  <path d="M 45.285 13.228 C 45.729 13.236 46.171 13.297 46.6 13.412 C 44.496 13.965 42.918 15.753 42.708 17.962 L 42.663 18.343 L 42.658 18.382 L 42.658 46.1 C 42.547 49.134 39.189 50.912 36.617 49.3 C 35.508 48.603 34.816 47.407 34.769 46.1 L 34.769 42.155 C 34.769 40.701 33.591 39.525 32.139 39.525 L 18.99 39.525 L 18.99 19.803 C 18.99 16.171 21.933 13.228 25.565 13.228 L 45.285 13.228 Z M 32.139 42.155 L 32.139 46.1 C 32.139 47.586 32.654 48.943 33.488 50.044 L 32.87 50.044 L 24.702 50.05 L 25.696 50.052 C 22.209 50.058 20.253 50.06 19.122 50.044 L 18.99 50.044 C 16.085 50.044 13.731 47.688 13.731 44.785 L 13.731 43.47 C 13.731 42.744 14.32 42.155 15.046 42.155 L 32.139 42.155 Z M 47.917 15.858 C 47.444 15.858 46.997 15.989 46.602 16.226 C 45.814 16.673 45.288 17.515 45.288 18.488 L 45.288 23.747 L 47.917 23.747 C 49.364 23.747 50.547 22.564 50.547 21.117 L 50.547 18.488 C 50.547 17.041 49.364 15.858 47.917 15.858 Z" style="fill: rgb(255, 255, 255);"/>
</svg>