<?xml version="1.0" encoding="utf-8"?>
<svg viewBox="0 0 64 64" xmlns="http://www.w3.org/2000/svg" xmlns:bx="https://boxy-svg.com">
  <defs>
    <style>.cls-1{fill:url(#linear-gradient);}.cls-2{fill:#ff0117;}.cls-3{fill:#fff;}.cls-4{fill:#ffa82d;}</style>
    <bx:guide x="4.505" y="12.293" angle="90"/>
    <bx:guide x="23.492" y="50.056" angle="90"/>
    <bx:guide x="9.625" y="-10.531" angle="0"/>
    <bx:guide x="54.854" y="-2.424" angle="0"/>
  </defs>
  <title/>
  <g data-name="16-weibo" id="_16-weibo">
    <rect class="cls-1" height="64" rx="11.2" ry="11.2" width="64" style="fill: rgb(32, 136, 254);"/>
  </g>
  <path d="M 49.618 15.975 C 46.289 14.884 37.674 12.061 37.674 12.09 C 37.674 16.457 32.946 19.186 29.164 17.003 C 27.408 15.988 26.327 14.116 26.327 12.09 C 26.327 12.061 17.712 14.884 14.381 15.975 C 13.608 16.228 13.085 16.953 13.09 17.768 L 13.09 24.795 C 13.09 26.024 14.244 26.927 15.438 26.631 L 20.654 25.327 L 20.654 48.02 C 20.654 49.065 21.501 49.912 22.545 49.912 L 41.456 49.912 C 42.499 49.912 43.347 49.065 43.347 48.02 L 43.347 25.327 L 48.562 26.631 C 49.756 26.927 50.912 26.024 50.912 24.795 L 50.912 17.768 C 50.916 16.953 50.393 16.228 49.618 15.975 Z" style="fill: rgb(255, 255, 255);"/>
</svg>