<?xml version="1.0" encoding="utf-8"?>
<svg viewBox="0 0 64 64" xmlns="http://www.w3.org/2000/svg" xmlns:bx="https://boxy-svg.com">
  <defs>
    <style>.cls-1{fill:url(#linear-gradient);}.cls-2{fill:#ff0117;}.cls-3{fill:#fff;}.cls-4{fill:#ffa82d;}</style>
    <bx:guide x="4.505" y="12.293" angle="90"/>
    <bx:guide x="23.492" y="50.056" angle="90"/>
    <bx:guide x="9.625" y="-10.531" angle="0"/>
    <bx:guide x="54.854" y="-2.424" angle="0"/>
  </defs>
  <title/>
  <g data-name="16-weibo" id="_16-weibo">
    <rect class="cls-1" height="64" rx="11.2" ry="11.2" width="64" style="fill: rgb(242, 37, 38);"/>
  </g>
  <path fill-rule="evenodd" fill="rgb(255, 255, 255)" d="M 36.908 38.622 C 36.231 39.074 35.637 39.441 35.09 39.723 C 34.946 46.304 33.576 44.931 32.094 50.056 C 32.094 46.492 29.167 46.433 29.092 39.484 C 28.544 39.242 27.95 38.958 27.279 38.622 C 26.076 38.622 25.474 38.622 19.456 45.242 L 19.456 41.631 L 19.456 33.206 C 21.863 30.197 23.067 28.993 25.474 27.188 C 25.474 18.962 28.437 12.293 32.094 12.293 C 35.75 12.293 38.714 18.962 38.714 27.188 C 41.121 28.993 42.324 30.197 44.732 33.206 L 44.732 45.242 C 38.714 38.622 38.112 38.622 36.908 38.622 Z" style=""/>
  <path fill-rule="evenodd" fill="rgb(242, 37, 38)" d="M 32.351 14.996 C 34.014 14.996 35.36 17.152 35.36 19.811 C 35.36 22.469 34.014 24.625 32.351 24.625 C 30.689 24.625 29.342 22.469 29.342 19.811 C 29.342 17.152 30.689 14.996 32.351 14.996 Z" style=""/>
</svg>