<?xml version="1.0" encoding="utf-8"?>
<svg viewBox="0 0 64 64" xmlns="http://www.w3.org/2000/svg" xmlns:bx="https://boxy-svg.com">
  <defs>
    <style>.cls-1{fill:url(#linear-gradient);}.cls-2{fill:#ff0117;}.cls-3{fill:#fff;}.cls-4{fill:#ffa82d;}</style>
    <bx:guide x="4.505" y="12.293" angle="90"/>
    <bx:guide x="23.492" y="50.056" angle="90"/>
    <bx:guide x="9.625" y="-10.531" angle="0"/>
    <bx:guide x="54.854" y="-2.424" angle="0"/>
  </defs>
  <title/>
  <g data-name="16-weibo" id="_16-weibo">
    <rect class="cls-1" height="64" rx="11.2" ry="11.2" width="64" style="fill: rgb(0, 0, 0);"/>
  </g>
  <path d="M 27.823 21.468 C 30.77 21.468 33.51 22.872 34.492 25.892 C 35.616 23.153 37.934 21.468 41.164 21.468 C 44.883 21.468 48.256 23.715 48.256 28.558 L 48.256 38.038 L 51.065 38.038 L 51.065 42.534 L 42.428 42.534 L 42.428 30.876 C 42.428 27.295 41.235 25.962 38.917 25.962 C 36.108 25.962 34.985 27.999 34.985 30.807 L 34.985 37.969 L 37.724 37.969 L 37.724 42.463 L 29.087 42.463 L 29.087 30.876 C 29.087 27.295 27.893 25.962 25.576 25.962 C 22.766 25.962 21.644 27.999 21.644 30.807 L 21.644 37.969 L 25.576 37.969 L 25.576 42.463 L 12.936 42.463 L 12.936 37.969 L 15.676 37.969 L 15.676 26.382 L 12.936 26.382 L 12.936 21.889 L 21.577 21.889 L 21.577 24.977 C 22.84 22.799 24.945 21.466 27.823 21.466 L 27.823 21.468 Z" style="fill: rgb(255, 255, 255);"/>
</svg>