<?xml version="1.0" encoding="utf-8"?>
<svg viewBox="0 0 64 64" xmlns="http://www.w3.org/2000/svg" xmlns:bx="https://boxy-svg.com">
  <defs>
    <style>.cls-1{fill:url(#linear-gradient);}.cls-2{fill:#ff0117;}.cls-3{fill:#fff;}.cls-4{fill:#ffa82d;}</style>
    <bx:guide x="4.505" y="12.293" angle="90"/>
    <bx:guide x="23.492" y="50.056" angle="90"/>
    <bx:guide x="9.625" y="-10.531" angle="0"/>
    <bx:guide x="54.854" y="-2.424" angle="0"/>
  </defs>
  <title/>
  <g data-name="16-weibo" id="_16-weibo">
    <rect class="cls-1" height="64" rx="11.2" ry="11.2" width="64" style="fill: rgb(42, 217, 162);"/>
  </g>
  <path fill-rule="evenodd" fill="rgb(255, 255, 255)" d="M 32 50.054 C 21.477 50.054 12.946 41.523 12.946 31 C 12.946 20.477 21.477 11.946 32 11.946 C 42.523 11.946 51.054 20.477 51.054 31 C 51.054 41.523 42.523 50.054 32 50.054 Z" style=""/>
  <path fill-rule="evenodd" fill="rgb(42, 217, 162)" d="M 37.81 30.921 C 37.81 28.651 36.6 26.555 34.634 25.421 L 39.08 17.721 C 43.797 20.443 46.702 25.476 46.702 30.921 L 37.81 30.921 Z M 31.459 34.097 C 29.705 34.097 28.283 32.674 28.283 30.921 C 28.283 29.167 29.705 27.746 31.459 27.746 C 33.213 27.746 34.634 29.167 34.634 30.921 C 34.634 32.674 33.213 34.097 31.459 34.097 Z M 25.108 30.921 L 16.216 30.921 C 16.216 25.476 19.121 20.443 23.837 17.721 L 28.283 25.421 C 26.318 26.555 25.108 28.651 25.108 30.921 Z M 34.634 36.421 L 39.08 44.122 C 34.364 46.844 28.554 46.844 23.837 44.122 L 28.283 36.421 C 30.248 37.556 32.669 37.556 34.634 36.421 Z" style=""/>
</svg>