<?xml version="1.0" encoding="utf-8"?>
<svg viewBox="0 0 64 64" xmlns="http://www.w3.org/2000/svg" xmlns:bx="https://boxy-svg.com">
  <defs>
    <style>.cls-1{fill:url(#linear-gradient);}.cls-2{fill:#ff0117;}.cls-3{fill:#fff;}.cls-4{fill:#ffa82d;}</style>
    <bx:guide x="4.505" y="12.293" angle="90"/>
    <bx:guide x="23.492" y="50.056" angle="90"/>
    <bx:guide x="9.625" y="-10.531" angle="0"/>
    <bx:guide x="54.854" y="-2.424" angle="0"/>
  </defs>
  <title/>
  <g data-name="16-weibo" id="_16-weibo">
    <rect class="cls-1" height="64" rx="11.2" ry="11.2" width="64" style="fill: rgb(32, 136, 254);"/>
  </g>
  <path d="M 47.245 31.293 C 47.245 29.224 45.562 27.541 43.493 27.541 L 41.617 27.541 L 41.617 21.913 C 41.617 16.739 37.408 12.531 32.235 12.531 C 27.063 12.531 22.853 16.739 22.853 21.913 L 22.853 27.541 L 20.978 27.541 C 18.908 27.541 17.225 29.224 17.225 31.293 L 17.225 46.303 C 17.225 48.373 18.908 50.056 20.978 50.056 L 43.493 50.056 C 45.562 50.056 47.245 48.373 47.245 46.303 L 47.245 31.293 Z M 26.607 21.913 C 26.607 18.809 29.131 16.284 32.235 16.284 C 35.338 16.284 37.864 18.809 37.864 21.913 L 37.864 27.541 L 26.607 27.541 L 26.607 21.913 Z" style="fill: rgb(255, 255, 255);"/>
</svg>