<?xml version="1.0" encoding="utf-8"?>
<svg viewBox="0 0 64 64" xmlns="http://www.w3.org/2000/svg" xmlns:bx="https://boxy-svg.com">
  <defs>
    <style>.cls-1{fill:url(#linear-gradient);}.cls-2{fill:#ff0117;}.cls-3{fill:#fff;}.cls-4{fill:#ffa82d;}</style>
    <bx:guide x="4.505" y="12.293" angle="90"/>
    <bx:guide x="23.492" y="50.056" angle="90"/>
    <bx:guide x="9.625" y="-10.531" angle="0"/>
    <bx:guide x="54.854" y="-2.424" angle="0"/>
  </defs>
  <title/>
  <g data-name="16-weibo" id="_16-weibo">
    <rect class="cls-1" height="64" rx="11.2" ry="11.2" width="64" style="fill: rgb(124, 67, 255);"/>
  </g>
  <path d="M 46.672 28.075 L 46.672 22.227 C 46.672 20.077 44.923 18.328 42.773 18.328 L 36.925 18.328 C 36.925 15.104 34.301 12.48 31.076 12.48 C 27.852 12.48 25.228 15.104 25.228 18.328 L 19.38 18.328 C 17.23 18.328 15.481 20.077 15.481 22.227 L 15.481 30.025 L 17.43 30.025 C 20.431 30.025 22.308 33.274 20.807 35.873 C 20.111 37.08 18.822 37.822 17.43 37.822 L 15.481 37.822 L 15.481 45.62 C 15.481 47.77 17.23 49.519 19.38 49.519 L 27.178 49.519 L 27.178 47.57 C 27.178 44.567 30.425 42.692 33.026 44.193 C 34.232 44.889 34.975 46.176 34.975 47.57 L 34.975 49.519 L 42.773 49.519 C 44.923 49.519 46.672 47.77 46.672 45.62 L 46.672 39.772 C 49.896 39.772 52.52 37.148 52.52 33.924 C 52.52 30.699 49.896 28.075 46.672 28.075 Z" style="fill: rgb(255, 255, 255);"/>
</svg>