<?xml version="1.0" encoding="utf-8"?>
<svg viewBox="0 0 64 64" xmlns="http://www.w3.org/2000/svg" xmlns:bx="https://boxy-svg.com">
  <defs>
    <style>.cls-1{fill:url(#linear-gradient);}.cls-2{fill:#ff0117;}.cls-3{fill:#fff;}.cls-4{fill:#ffa82d;}</style>
    <bx:guide x="4.505" y="12.293" angle="90"/>
    <bx:guide x="23.492" y="50.056" angle="90"/>
    <bx:guide x="9.625" y="-10.531" angle="0"/>
    <bx:guide x="54.854" y="-2.424" angle="0"/>
  </defs>
  <title/>
  <g data-name="16-weibo" id="_16-weibo">
    <rect class="cls-1" height="64" rx="11.2" ry="11.2" width="64" style="fill: rgb(28, 106, 245);"/>
  </g>
  <path d="M 32.137 26.54 C 30.939 26.54 29.819 27.005 28.971 27.853 C 28.125 28.702 27.658 29.823 27.658 31.021 C 27.658 32.215 28.125 33.337 28.971 34.185 C 29.819 35.031 30.939 35.498 32.137 35.498 C 33.333 35.498 34.454 35.031 35.302 34.185 C 36.147 33.337 36.616 32.215 36.616 31.021 C 36.616 29.823 36.147 28.702 35.302 27.853 C 34.465 27.009 33.324 26.537 32.137 26.54 Z M 48.64 35.967 L 46.023 33.729 C 46.145 32.969 46.21 32.192 46.21 31.42 C 46.21 30.647 46.145 29.868 46.023 29.111 L 48.64 26.873 C 49.044 26.526 49.193 25.965 49.012 25.463 L 48.975 25.361 C 48.254 23.346 47.175 21.478 45.79 19.849 L 45.717 19.764 C 45.372 19.359 44.815 19.208 44.312 19.384 L 41.061 20.542 C 39.86 19.556 38.525 18.78 37.076 18.239 L 36.448 14.841 C 36.351 14.315 35.94 13.908 35.416 13.814 L 35.306 13.793 C 33.225 13.417 31.032 13.417 28.951 13.793 L 28.842 13.814 C 28.317 13.908 27.907 14.315 27.81 14.841 L 27.178 18.254 C 25.743 18.801 24.405 19.575 23.218 20.549 L 19.945 19.384 C 19.442 19.206 18.882 19.358 18.54 19.764 L 18.467 19.849 C 17.084 21.48 16.005 23.347 15.281 25.361 L 15.245 25.463 C 15.066 25.965 15.214 26.524 15.618 26.873 L 18.267 29.133 C 18.144 29.887 18.083 30.655 18.083 31.416 C 18.083 32.185 18.144 32.952 18.267 33.697 L 15.625 35.959 C 15.22 36.306 15.073 36.867 15.254 37.366 L 15.291 37.472 C 16.014 39.484 17.083 41.346 18.476 42.984 L 18.549 43.067 C 18.891 43.473 19.45 43.623 19.952 43.449 L 23.226 42.283 C 24.419 43.263 25.748 44.04 27.185 44.575 L 27.818 47.99 C 27.915 48.514 28.325 48.925 28.851 49.02 L 28.958 49.039 C 31.061 49.417 33.214 49.417 35.315 49.039 L 35.423 49.02 C 35.947 48.925 36.358 48.514 36.457 47.99 L 37.085 44.592 C 38.534 44.047 39.87 43.275 41.071 42.291 L 44.321 43.449 C 44.823 43.624 45.381 43.474 45.724 43.067 L 45.797 42.984 C 47.189 41.338 48.259 39.484 48.983 37.472 L 49.019 37.366 C 49.193 36.872 49.044 36.315 48.64 35.967 Z M 32.137 38.055 C 28.25 38.055 25.1 34.906 25.1 31.021 C 25.1 27.133 28.25 23.984 32.137 23.984 C 36.024 23.984 39.173 27.133 39.173 31.021 C 39.173 34.906 36.024 38.055 32.137 38.055 Z" style="fill: rgb(255, 255, 255);"/>
</svg>