<?xml version="1.0" encoding="utf-8"?>
<svg viewBox="0 0 64 64" xmlns="http://www.w3.org/2000/svg" xmlns:bx="https://boxy-svg.com">
  <defs>
    <style>.cls-1{fill:url(#linear-gradient);}.cls-2{fill:#ff0117;}.cls-3{fill:#fff;}.cls-4{fill:#ffa82d;}</style>
    <bx:guide x="4.505" y="12.293" angle="90"/>
    <bx:guide x="23.492" y="50.056" angle="90"/>
    <bx:guide x="9.625" y="-10.531" angle="0"/>
    <bx:guide x="54.854" y="-2.424" angle="0"/>
  </defs>
  <title/>
  <g data-name="16-weibo" id="_16-weibo">
    <rect class="cls-1" height="64" rx="11.2" ry="11.2" width="64" style="fill: rgb(15, 180, 2);"/>
  </g>
  <path d="M 44.802 40.841 C 44.092 40.841 43.494 40.556 43.011 39.984 C 42.529 39.411 42.287 38.706 42.291 37.862 L 42.291 25.948 C 42.291 25.104 42.532 24.397 43.013 23.825 C 43.496 23.253 44.092 22.967 44.802 22.97 L 52.341 22.97 C 53.052 22.97 53.65 23.255 54.132 23.827 C 54.615 24.4 54.856 25.104 54.854 25.948 L 54.854 28.928 L 51.085 28.928 L 51.085 27.438 L 46.059 27.438 L 46.059 36.373 L 51.085 36.373 L 51.085 34.883 L 54.854 34.883 L 54.854 37.862 C 54.854 38.706 54.613 39.414 54.13 39.986 C 53.647 40.558 53.052 40.844 52.341 40.841 L 44.802 40.841 Z M 25.957 40.841 L 25.957 22.97 L 36.009 22.97 C 36.72 22.97 37.318 23.255 37.8 23.827 C 38.283 24.4 38.524 25.104 38.522 25.948 L 38.522 28.928 C 38.522 29.769 38.28 30.478 37.798 31.05 C 37.315 31.623 36.72 31.908 36.009 31.905 C 36.72 31.905 37.318 32.19 37.8 32.762 C 38.283 33.334 38.524 34.042 38.522 34.883 L 38.522 37.862 C 38.522 38.706 38.28 39.414 37.798 39.986 C 37.315 40.558 36.72 40.844 36.009 40.841 L 25.957 40.841 Z M 29.727 29.671 L 34.752 29.671 L 34.752 27.438 L 29.727 27.438 L 29.727 29.671 Z M 29.727 36.373 L 34.752 36.373 L 34.752 34.14 L 29.727 34.14 L 29.727 36.373 Z M 9.625 40.841 L 9.625 25.948 C 9.625 25.104 9.866 24.397 10.349 23.825 C 10.832 23.253 11.427 22.967 12.138 22.97 L 19.677 22.97 C 20.387 22.97 20.985 23.255 21.468 23.827 C 21.95 24.4 22.191 25.104 22.188 25.948 L 22.188 40.841 L 18.42 40.841 L 18.42 36.373 L 13.394 36.373 L 13.394 40.841 L 9.625 40.841 Z M 13.394 31.905 L 18.42 31.905 L 18.42 27.438 L 13.394 27.438 L 13.394 31.905 Z" style="fill: rgb(255, 255, 255);"/>
</svg>