<?xml version="1.0" encoding="utf-8"?>
<svg viewBox="0 0 64 64" xmlns="http://www.w3.org/2000/svg" xmlns:bx="https://boxy-svg.com">
  <defs>
    <style>.cls-1{fill:url(#linear-gradient);}.cls-2{fill:#ff0117;}.cls-3{fill:#fff;}.cls-4{fill:#ffa82d;}</style>
    <bx:guide x="4.505" y="12.293" angle="90"/>
    <bx:guide x="23.492" y="50.056" angle="90"/>
    <bx:guide x="9.625" y="-10.531" angle="0"/>
    <bx:guide x="54.854" y="-2.424" angle="0"/>
  </defs>
  <title/>
  <g data-name="16-weibo" id="_16-weibo">
    <rect class="cls-1" height="64" rx="11.2" ry="11.2" width="64" style="fill: rgb(42, 217, 162);"/>
  </g>
  <path d="M 32 12.766 C 21.719 12.766 13.355 21.13 13.355 31.411 C 13.355 41.692 21.719 50.056 32 50.056 C 42.281 50.056 50.645 41.692 50.645 31.411 C 50.645 21.13 42.281 12.766 32 12.766 Z M 17.084 31.411 C 17.084 29.735 17.375 28.126 17.888 26.621 L 20.813 29.546 L 24.542 33.275 L 24.542 37.004 L 28.271 40.733 L 30.135 42.598 L 30.135 46.198 C 22.791 45.275 17.084 39.003 17.084 31.411 Z M 43.802 40.497 C 42.585 39.516 40.739 38.869 39.458 38.869 L 39.458 37.004 C 39.458 34.944 37.787 33.275 35.729 33.275 L 28.271 33.275 L 28.271 27.682 C 30.329 27.682 32 26.013 32 23.953 L 32 22.088 L 33.864 22.088 C 35.923 22.088 37.593 20.42 37.593 18.359 L 37.593 17.593 C 43.053 19.81 46.916 25.165 46.916 31.411 C 46.916 34.702 45.819 37.897 43.802 40.497 Z" style="fill: rgb(255, 255, 255);"/>
</svg>