<?xml version="1.0" encoding="utf-8"?>
<svg viewBox="0 0 64 64" xmlns="http://www.w3.org/2000/svg" xmlns:bx="https://boxy-svg.com">
  <defs>
    <style>.cls-1{fill:url(#linear-gradient);}.cls-2{fill:#ff0117;}.cls-3{fill:#fff;}.cls-4{fill:#ffa82d;}</style>
    <bx:guide x="4.505" y="12.293" angle="90"/>
    <bx:guide x="23.492" y="50.056" angle="90"/>
    <bx:guide x="9.625" y="-10.531" angle="0"/>
    <bx:guide x="54.854" y="-2.424" angle="0"/>
  </defs>
  <title/>
  <g data-name="16-weibo" id="_16-weibo">
    <rect class="cls-1" height="64" rx="11.2" ry="11.2" width="64" style="fill: rgb(31, 100, 254);"/>
  </g>
  <path fill-rule="evenodd" d="M 32.001 13.295 C 28.913 13.305 25.934 14.417 23.598 16.433 C 21.806 17.976 20.507 19.987 20.175 22.006 C 16.254 22.87 13.295 26.283 13.295 30.405 C 13.295 35.194 17.287 39.013 22.134 39.013 L 30.83 39.013 L 30.83 26.155 C 30.83 25.255 31.806 24.692 32.586 25.142 C 32.947 25.351 33.171 25.738 33.171 26.155 L 33.171 39.013 L 42.961 39.013 C 47.203 39.013 50.705 35.671 50.705 31.469 C 50.705 27.644 47.802 24.527 44.078 24.001 C 43.51 17.968 38.29 13.295 32.001 13.295 Z M 31.173 50.365 C 31.627 50.818 32.373 50.818 32.827 50.365 L 39.842 43.349 C 40.48 42.712 40.188 41.624 39.318 41.39 C 38.914 41.283 38.482 41.397 38.188 41.694 L 33.171 46.714 L 33.171 39.013 L 30.83 39.013 L 30.83 46.714 L 25.813 41.694 C 25.176 41.056 24.089 41.348 23.853 42.217 C 23.748 42.623 23.863 43.051 24.158 43.349 L 31.173 50.365 Z" style="fill: rgb(255, 255, 255);"/>
</svg>